<svg width="695" height="132" viewBox="0 0 695 132" fill="none" xmlns="http://www.w3.org/2000/svg">
<g filter="url(#filter0_d_5_14)">
<path d="M1.04 131.8V37.08H48.4C59.8347 37.08 68.752 39.896 75.152 45.528C81.552 51.16 84.752 59.3093 84.752 69.976C84.752 80.728 81.552 88.92 75.152 94.552C68.752 100.184 59.8347 103 48.4 103H19.6V131.8H1.04ZM48.4 51.8H19.6V88.28H48.4C53.9467 88.28 58.1707 86.7867 61.072 83.8C64.0587 80.728 65.552 76.12 65.552 69.976C65.552 63.9173 64.0587 59.3947 61.072 56.408C58.1707 53.336 53.9467 51.8 48.4 51.8ZM130.082 103.64C118.647 103.64 109.73 100.824 103.33 95.192C96.93 89.4747 93.73 81.112 93.73 70.104C93.73 59.0107 96.93 50.648 103.33 45.016C109.73 39.2987 118.647 36.44 130.082 36.44H153.762C165.197 36.44 174.114 39.2987 180.514 45.016C186.914 50.648 190.114 59.0107 190.114 70.104C190.114 81.112 186.914 89.4747 180.514 95.192C174.114 100.824 165.197 103.64 153.762 103.64H130.082ZM130.082 88.92H153.762C159.309 88.92 163.533 87.384 166.434 84.312C169.421 81.24 170.914 76.504 170.914 70.104C170.914 63.6187 169.421 58.84 166.434 55.768C163.533 52.696 159.309 51.16 153.762 51.16H130.082C124.535 51.16 120.269 52.696 117.282 55.768C114.381 58.84 112.93 63.6187 112.93 70.104C112.93 76.504 114.381 81.24 117.282 84.312C120.269 87.384 124.535 88.92 130.082 88.92ZM201.665 103V37.08H252.097C259.521 37.08 264.982 38.9573 268.481 42.712C271.98 46.3813 273.729 51.2453 273.729 57.304V71H254.913V59.608C254.913 54.488 252.353 51.928 247.233 51.928H220.481V103H201.665ZM318.219 103C310.795 103 305.334 101.165 301.835 97.496C298.336 93.7413 296.587 88.8347 296.587 82.776V51.8H277.515V37.08H296.587V16.856H315.147V37.08H342.539V51.8H315.147V80.472C315.147 85.6773 317.707 88.28 322.827 88.28H346.123V103H318.219Z" fill="black"/>
<path d="M370.257 103V51.8H351.185V37.08H370.257V31.96C370.257 25.9013 372.006 21.0373 375.505 17.368C379.004 13.6133 384.465 11.736 391.889 11.736H419.793V26.456H396.497C391.377 26.456 388.817 29.0587 388.817 34.264V37.08H416.209V51.8H388.817V103H370.257ZM456.832 103.64C445.397 103.64 436.48 100.824 430.08 95.192C423.68 89.4747 420.48 81.112 420.48 70.104C420.48 59.0107 423.68 50.648 430.08 45.016C436.48 39.2987 445.397 36.44 456.832 36.44H480.512C491.947 36.44 500.864 39.2987 507.264 45.016C513.664 50.648 516.864 59.0107 516.864 70.104C516.864 81.112 513.664 89.4747 507.264 95.192C500.864 100.824 491.947 103.64 480.512 103.64H456.832ZM456.832 88.92H480.512C486.059 88.92 490.283 87.384 493.184 84.312C496.171 81.24 497.664 76.504 497.664 70.104C497.664 63.6187 496.171 58.84 493.184 55.768C490.283 52.696 486.059 51.16 480.512 51.16H456.832C451.285 51.16 447.019 52.696 444.032 55.768C441.131 58.84 439.68 63.6187 439.68 70.104C439.68 76.504 441.131 81.24 444.032 84.312C447.019 87.384 451.285 88.92 456.832 88.92ZM528.415 103V11.48H546.975V103H528.415ZM561.04 103V37.08H579.6V103H561.04ZM560.912 26.2V11.736H579.728V26.2H560.912ZM627.457 103.64C616.022 103.64 607.105 100.824 600.705 95.192C594.305 89.4747 591.105 81.112 591.105 70.104C591.105 59.0107 594.305 50.648 600.705 45.016C607.105 39.2987 616.022 36.44 627.457 36.44H651.137C662.572 36.44 671.489 39.2987 677.889 45.016C684.289 50.648 687.489 59.0107 687.489 70.104C687.489 81.112 684.289 89.4747 677.889 95.192C671.489 100.824 662.572 103.64 651.137 103.64H627.457ZM627.457 88.92H651.137C656.684 88.92 660.908 87.384 663.809 84.312C666.796 81.24 668.289 76.504 668.289 70.104C668.289 63.6187 666.796 58.84 663.809 55.768C660.908 52.696 656.684 51.16 651.137 51.16H627.457C621.91 51.16 617.644 52.696 614.657 55.768C611.756 58.84 610.305 63.6187 610.305 70.104C610.305 76.504 611.756 81.24 614.657 84.312C617.644 87.384 621.91 88.92 627.457 88.92Z" fill="url(#paint0_linear_5_14)"/>
</g>
<defs>
<filter id="filter0_d_5_14" x="0.0400085" y="0.47998" width="694.449" height="131.32" filterUnits="userSpaceOnUse" color-interpolation-filters="sRGB">
<feFlood flood-opacity="0" result="BackgroundImageFix"/>
<feColorMatrix in="SourceAlpha" type="matrix" values="0 0 0 0 0 0 0 0 0 0 0 0 0 0 0 0 0 0 127 0" result="hardAlpha"/>
<feMorphology radius="4" operator="dilate" in="SourceAlpha" result="effect1_dropShadow_5_14"/>
<feOffset dx="3" dy="-7"/>
<feComposite in2="hardAlpha" operator="out"/>
<feColorMatrix type="matrix" values="0 0 0 0 0 0 0 0 0 0 0 0 0 0 0 0 0 0 0.25 0"/>
<feBlend mode="normal" in2="BackgroundImageFix" result="effect1_dropShadow_5_14"/>
<feBlend mode="normal" in="SourceGraphic" in2="effect1_dropShadow_5_14" result="shape"/>
</filter>
<linearGradient id="paint0_linear_5_14" x1="-6" y1="61" x2="692" y2="61" gradientUnits="userSpaceOnUse">
<stop stop-opacity="0.5"/>
<stop offset="1" stop-color="white" stop-opacity="0.6"/>
</linearGradient>
</defs>
</svg>
